<svg xmlns:dc="http://purl.org/dc/elements/1.1/" xmlns:cc="http://creativecommons.org/ns#" xmlns:rdf="http://www.w3.org/1999/02/22-rdf-syntax-ns#" xmlns:svg="http://www.w3.org/2000/svg" xmlns="http://www.w3.org/2000/svg" xmlns:sodipodi="http://sodipodi.sourceforge.net/DTD/sodipodi-0.dtd" xmlns:inkscape="http://www.inkscape.org/namespaces/inkscape" version="1.1" x="0px" y="0px" viewBox="0 0 100 100"><g transform="translate(0,-952.36218)"><path style="text-indent:0;text-transform:none;direction:ltr;block-progression:tb;baseline-shift:baseline;color:#000000;enable-background:accumulate;" d="m 50.000002,962.36216 c -9.43199,0 -17.98149,1.45674 -24.4375,3.99997 -3.22801,1.2717 -5.93122,2.792 -8,4.71879 -2.06878,1.9268 -3.5625,4.4574 -3.5625,7.28121 l 0,48.00007 c 0,2.8238 1.49372,5.3232 3.5625,7.25 2.06878,1.9268 4.772,3.4471 8,4.7187 6.456,2.5433 15.00551,4.0313 24.4375,4.0313 9.432036,0 17.981506,-1.488 24.437496,-4.0313 3.22799,-1.2716 5.93123,-2.7919 8,-4.7187 2.06877,-1.9268 3.5625,-4.4262 3.5625,-7.25 l 0,-48.00007 c 0,-2.8238 -1.49373,-5.3544 -3.5625,-7.2812 -2.06877,-1.9268 -4.77201,-3.4471 -8,-4.7188 -6.45598,-2.54323 -15.00546,-3.99997 -24.437496,-3.99997 z m 0,5.99997 c 8.793336,0 16.762346,1.432 22.249996,3.59379 2.74383,1.08091 4.85399,2.3474 6.125,3.53121 1.27101,1.1838 1.625,2.109 1.625,2.875 0,0.7661 -0.35399,1.65999 -1.625,2.84379 -1.27101,1.18381 -3.38117,2.4503 -6.125,3.53121 -5.48765,2.16179 -13.45666,3.62499 -22.249996,3.62499 -8.79329,0 -16.76231,-1.4632 -22.25,-3.625 -2.74385,-1.0809 -4.85397,-2.3474 -6.125,-3.5312 -1.27103,-1.1838 -1.625,-2.0778 -1.625,-2.8438 0,-0.766 0.35397,-1.6912 1.625,-2.875 1.27103,-1.1838 3.38115,-2.4503 6.125,-3.5312 5.48769,-2.1618 13.45671,-3.5938 22.25,-3.5938 z m -30,19.15629 c 1.61632,1.0699 3.47981,1.992 5.5625,2.8125 6.45601,2.54321 15.00551,4.0312 24.4375,4.0312 9.432036,0 17.981516,-1.488 24.437496,-4.0312 2.08267,-0.8205 3.94617,-1.7426 5.5625,-2.8125 l 0,6.8437 c 0,0.7661 -0.35399,1.66 -1.625,2.8438 -1.27101,1.18381 -3.38117,2.4503 -6.125,3.53118 -5.48765,2.1618 -13.45666,3.625 -22.249996,3.625 -8.79329,0 -16.76231,-1.4632 -22.25,-3.625 -2.74385,-1.08088 -4.85397,-2.34738 -6.125,-3.53118 -1.27103,-1.1838 -1.625,-2.0778 -1.625,-2.8438 l 0,-6.8437 z m 0,15.96868 c 1.61618,1.0769 3.47069,2.0197 5.5625,2.8438 6.45601,2.5432 15.00551,4.0313 24.4375,4.0313 9.432036,0 17.981516,-1.488 24.437496,-4.0313 2.09179,-0.8241 3.94632,-1.7669 5.5625,-2.8438 l 0,6.8751 c 0,0.766 -0.35399,1.6599 -1.625,2.8437 -1.27101,1.1838 -3.38117,2.4504 -6.125,3.5313 -5.48765,2.1618 -13.45666,3.625 -22.249996,3.625 -8.79329,0 -16.76231,-1.4632 -22.25,-3.625 -2.74385,-1.0809 -4.85397,-2.3475 -6.125,-3.5313 -1.27103,-1.1838 -1.625,-2.0777 -1.625,-2.8437 l 0,-6.8751 z m 0,16.0001 c 1.61618,1.0768 3.47069,2.0197 5.5625,2.8437 6.45601,2.5433 15.00551,4.0313 24.4375,4.0313 9.432036,0 17.981516,-1.488 24.437496,-4.0313 2.09179,-0.824 3.94632,-1.7669 5.5625,-2.8437 l 0,6.875 c 0,0.766 -0.35399,1.6599 -1.625,2.8437 -1.27101,1.1838 -3.38117,2.4504 -6.125,3.5313 -5.48767,2.1618 -13.45666,3.625 -22.249996,3.625 -8.79329,0 -16.76232,-1.4632 -22.25,-3.625 -2.74384,-1.0809 -4.85398,-2.3475 -6.125,-3.5313 -1.27102,-1.1838 -1.625,-2.0777 -1.625,-2.8437 l 0,-6.875 z" fill="#000000" fill-opacity="1" stroke="none" marker="none" visibility="visible" display="inline" overflow="visible"/></g></svg>
