<svg version="1" xmlns="http://www.w3.org/2000/svg" width="933.333" height="933.333" viewBox="0 0 700.000000 700.000000"><path d="M313.5 71.1c-60.9 4-111.4 15.5-151 34.3-32.4 15.5-51.9 33.7-60.9 57.1l-3.1 8v358l3.1 8.6c4.1 11.5 10.7 21.1 21.2 31 17.5 16.4 39.6 28.4 72.3 39.3 90.2 30.1 219.6 30.1 309.8 0 32.7-10.9 54.8-22.9 72.3-39.3 10.5-9.9 17.1-19.5 21.2-31l3.1-8.6v-358l-3.1-8c-9-23.4-28.5-41.6-60.9-57.1-48.6-23.1-116.3-35.7-190-35.2-12.1 0-27.4.4-34 .9zm88.3 43.4c68.2 6.8 121.3 24.1 146.9 47.9 6.9 6.3 11.3 14 11.3 19.6 0 16.9-30.8 38.2-74.5 51.5-80.9 24.5-190.1 24.5-271 0-43.7-13.3-74.5-34.6-74.5-51.5 0-8.6 9.5-20.2 24.4-29.8 29.5-19.1 83.4-33.8 140.1-38.2 7.7-.6 16-1.2 18.5-1.4 10.2-.9 64.5.4 78.8 1.9zM168.4 261.3c74.1 32.5 188.8 41.8 286.1 23.1 37.6-7.2 73.9-19.6 96.4-32.9l9.1-5.4v25.8c0 25.6 0 25.7-2.6 30.9-7.4 14.8-35.9 31.8-71.9 42.7-80.9 24.5-190.1 24.5-271 0-36-10.9-64.5-27.9-71.9-42.7-2.6-5.2-2.6-5.3-2.6-30.9v-25.8l9.1 5.4c5 2.9 13.6 7.4 19.3 9.8zm-15.9 104.1c21.7 12.3 57.2 24.1 93 31 66.4 12.7 142.6 12.7 209 0 41.3-7.9 79.7-21.7 102.8-36.8l2.7-1.8v25.9c0 25.8 0 25.9-2.6 31.1-7.4 14.8-35.9 31.8-71.9 42.7-80.9 24.5-190.1 24.5-271 0-36-10.9-64.5-27.9-71.9-42.7-2.6-5.2-2.6-5.3-2.6-31.1v-25.9l2.8 1.8c1.5 1 5.9 3.6 9.7 5.8zm0 112c21.7 12.3 57.2 24.1 93 31 66.4 12.7 142.6 12.7 209 0 41.3-7.9 79.7-21.7 102.8-36.8l2.7-1.8v25.9c0 25.8 0 25.9-2.6 31.1-7.4 14.8-35.9 31.8-71.9 42.7-80.9 24.5-190.1 24.5-271 0-36-10.9-64.5-27.9-71.9-42.7-2.6-5.2-2.6-5.3-2.6-31.1v-25.9l2.8 1.8c1.5 1 5.9 3.6 9.7 5.8z"/></svg>